{
	"asset":{
		"generator":"Khronos glTF Blender I/O v5.2.39",
		"version":"2.0"
	},
	"scene":0,
	"scenes":[
		{
			"name":"Scene",
			"nodes":[
				0,
				1
			]
		}
	],
	"nodes":[
		{
			"mesh":0,
			"name":"portique",
			"rotation":[
				0.5,
				0.5,
				-0.5,
				0.5
			],
			"scale":[
				0.599992036819458,
				0.599992036819458,
				0.599992036819458
			],
			"translation":[
				-2.606144428253174,
				0,
				1.869065523147583
			]
		},
		{
			"mesh":1,
			"name":"Sol"
		}
	],
	"materials":[
		{
			"doubleSided":true,
			"name":"portique01",
			"pbrMetallicRoughness":{
				"baseColorTexture":{
					"index":0
				},
				"metallicFactor":0
			}
		},
		{
			"doubleSided":true,
			"name":"portique02",
			"pbrMetallicRoughness":{
				"baseColorTexture":{
					"index":1
				},
				"metallicFactor":0,
				"roughnessFactor":0.5
			}
		},
		{
			"doubleSided":true,
			"name":"Gris",
			"pbrMetallicRoughness":{
				"baseColorTexture":{
					"index":2
				},
				"metallicFactor":0,
				"roughnessFactor":0.5
			}
		},
		{
			"doubleSided":true,
			"name":"Noir",
			"pbrMetallicRoughness":{
				"baseColorTexture":{
					"index":3
				},
				"metallicFactor":0
			}
		},
		{
			"doubleSided":true,
			"name":"Blanc",
			"pbrMetallicRoughness":{
				"baseColorFactor":[
					0.800000011920929,
					0.800000011920929,
					0.800000011920929,
					1
				],
				"metallicFactor":0,
				"roughnessFactor":0.5
			}
		},
		{
			"doubleSided":true,
			"name":"Rouge",
			"pbrMetallicRoughness":{
				"baseColorTexture":{
					"index":4
				},
				"metallicFactor":0,
				"roughnessFactor":0.5
			}
		},
		{
			"doubleSided":true,
			"name":"Bleu",
			"pbrMetallicRoughness":{
				"baseColorTexture":{
					"index":5
				},
				"metallicFactor":0,
				"roughnessFactor":0.5
			}
		},
		{
			"doubleSided":true,
			"name":"Sol",
			"pbrMetallicRoughness":{
				"baseColorTexture":{
					"index":6
				},
				"metallicFactor":0
			}
		},
		{
			"doubleSided":true,
			"name":"Montaulab",
			"pbrMetallicRoughness":{
				"baseColorTexture":{
					"index":7
				},
				"metallicFactor":0,
				"roughnessFactor":0.5
			}
		},
		{
			"doubleSided":true,
			"name":"pleinte",
			"pbrMetallicRoughness":{
				"baseColorTexture":{
					"index":8
				},
				"metallicFactor":0,
				"roughnessFactor":0.5
			}
		}
	],
	"meshes":[
		{
			"name":"CercleB\u00e9zier",
			"primitives":[
				{
					"attributes":{
						"POSITION":0,
						"NORMAL":1,
						"TEXCOORD_0":2
					},
					"indices":3,
					"material":0
				},
				{
					"attributes":{
						"POSITION":4,
						"NORMAL":5,
						"TEXCOORD_0":6
					},
					"indices":7,
					"material":1
				}
			]
		},
		{
			"name":"CercleB\u00e9zier.001",
			"primitives":[
				{
					"attributes":{
						"POSITION":8,
						"NORMAL":9,
						"TEXCOORD_0":10
					},
					"indices":11,
					"material":2
				},
				{
					"attributes":{
						"POSITION":12,
						"NORMAL":13,
						"TEXCOORD_0":14
					},
					"indices":15,
					"material":3
				},
				{
					"attributes":{
						"POSITION":16,
						"NORMAL":17,
						"TEXCOORD_0":18
					},
					"indices":19,
					"material":4
				},
				{
					"attributes":{
						"POSITION":20,
						"NORMAL":21,
						"TEXCOORD_0":22
					},
					"indices":23,
					"material":5
				},
				{
					"attributes":{
						"POSITION":24,
						"NORMAL":25,
						"TEXCOORD_0":26
					},
					"indices":27,
					"material":6
				},
				{
					"attributes":{
						"POSITION":28,
						"NORMAL":29,
						"TEXCOORD_0":30
					},
					"indices":31,
					"material":7
				},
				{
					"attributes":{
						"POSITION":32,
						"NORMAL":33,
						"TEXCOORD_0":34
					},
					"indices":35,
					"material":8
				},
				{
					"attributes":{
						"POSITION":36,
						"NORMAL":37,
						"TEXCOORD_0":38
					},
					"indices":39,
					"material":9
				}
			]
		}
	],
	"textures":[
		{
			"sampler":0,
			"source":0
		},
		{
			"sampler":0,
			"source":1
		},
		{
			"sampler":0,
			"source":1
		},
		{
			"sampler":0,
			"source":2
		},
		{
			"sampler":0,
			"source":3
		},
		{
			"sampler":0,
			"source":4
		},
		{
			"sampler":0,
			"source":5
		},
		{
			"sampler":1,
			"source":6
		},
		{
			"sampler":0,
			"source":7
		}
	],
	"images":[
		{
			"mimeType":"image/png",
			"name":"portique",
			"uri":"textures/portique.png"
		},
		{
			"mimeType":"image/jpeg",
			"name":"gris",
			"uri":"textures/gris.jpg"
		},
		{
			"mimeType":"image/jpeg",
			"name":"noir",
			"uri":"textures/noir.jpg"
		},
		{
			"mimeType":"image/jpeg",
			"name":"rouge",
			"uri":"textures/rouge.jpg"
		},
		{
			"mimeType":"image/jpeg",
			"name":"bleu",
			"uri":"textures/bleu.jpg"
		},
		{
			"mimeType":"image/jpeg",
			"name":"sol",
			"uri":"textures/sol.jpg"
		},
		{
			"mimeType":"image/jpeg",
			"name":"montaulab",
			"uri":"textures/montaulab.jpg"
		},
		{
			"mimeType":"image/jpeg",
			"name":"pleinte",
			"uri":"textures/pleinte.jpg"
		}
	],
	"accessors":[
		{
			"bufferView":0,
			"componentType":5126,
			"count":603,
			"max":[
				1.1199991703033447,
				0.19001296162605286,
				0.0006031990051269531
			],
			"min":[
				-1.1199984550476074,
				-0.1900015026330948,
				-1.228761911392212
			],
			"type":"VEC3"
		},
		{
			"bufferView":1,
			"componentType":5126,
			"count":603,
			"type":"VEC3"
		},
		{
			"bufferView":2,
			"componentType":5126,
			"count":603,
			"type":"VEC2"
		},
		{
			"bufferView":3,
			"componentType":5123,
			"count":960,
			"type":"SCALAR"
		},
		{
			"bufferView":4,
			"componentType":5126,
			"count":322,
			"max":[
				1.1199991703033447,
				0.19001296162605286,
				0.0006031990051269531
			],
			"min":[
				-1.1199984550476074,
				-0.1900015026330948,
				-1.228761911392212
			],
			"type":"VEC3"
		},
		{
			"bufferView":5,
			"componentType":5126,
			"count":322,
			"type":"VEC3"
		},
		{
			"bufferView":6,
			"componentType":5126,
			"count":322,
			"type":"VEC2"
		},
		{
			"bufferView":7,
			"componentType":5123,
			"count":480,
			"type":"SCALAR"
		},
		{
			"bufferView":8,
			"componentType":5126,
			"count":600,
			"max":[
				5.004474639892578,
				2.2351741790771484e-07,
				2.368896007537842
			],
			"min":[
				-5.005716800689697,
				-2.2351741790771484e-07,
				-3.1401238441467285
			],
			"type":"VEC3"
		},
		{
			"bufferView":9,
			"componentType":5126,
			"count":600,
			"type":"VEC3"
		},
		{
			"bufferView":10,
			"componentType":5126,
			"count":600,
			"type":"VEC2"
		},
		{
			"bufferView":11,
			"componentType":5123,
			"count":1776,
			"type":"SCALAR"
		},
		{
			"bufferView":12,
			"componentType":5126,
			"count":600,
			"max":[
				4.579470634460449,
				3.3525722642480105e-08,
				1.944025993347168
			],
			"min":[
				-4.580939769744873,
				-3.367615875049523e-08,
				-2.7152698040008545
			],
			"type":"VEC3"
		},
		{
			"bufferView":13,
			"componentType":5126,
			"count":600,
			"type":"VEC3"
		},
		{
			"bufferView":14,
			"componentType":5126,
			"count":600,
			"type":"VEC2"
		},
		{
			"bufferView":15,
			"componentType":5123,
			"count":1776,
			"type":"SCALAR"
		},
		{
			"bufferView":16,
			"componentType":5126,
			"count":300,
			"max":[
				4.52970027923584,
				1.1276540590188233e-08,
				1.8942760229110718
			],
			"min":[
				-4.531195640563965,
				-1.1258499910127284e-08,
				-2.6655168533325195
			],
			"type":"VEC3"
		},
		{
			"bufferView":17,
			"componentType":5126,
			"count":300,
			"type":"VEC3"
		},
		{
			"bufferView":18,
			"componentType":5126,
			"count":300,
			"type":"VEC2"
		},
		{
			"bufferView":19,
			"componentType":5123,
			"count":888,
			"type":"SCALAR"
		},
		{
			"bufferView":20,
			"componentType":5126,
			"count":12,
			"max":[
				-2.5008459091186523,
				3.251891911304483e-08,
				2.3688597679138184
			],
			"min":[
				-2.7114944458007812,
				-3.16213899509421e-08,
				1.3691680431365967
			],
			"type":"VEC3"
		},
		{
			"bufferView":21,
			"componentType":5126,
			"count":12,
			"type":"VEC3"
		},
		{
			"bufferView":22,
			"componentType":5126,
			"count":12,
			"type":"VEC2"
		},
		{
			"bufferView":23,
			"componentType":5123,
			"count":30,
			"type":"SCALAR"
		},
		{
			"bufferView":24,
			"componentType":5126,
			"count":12,
			"max":[
				3.5040972232818604,
				1.744420785598777e-08,
				2.368896007537842
			],
			"min":[
				3.3490216732025146,
				-1.0359825886041563e-08,
				1.3685557842254639
			],
			"type":"VEC3"
		},
		{
			"bufferView":25,
			"componentType":5126,
			"count":12,
			"type":"VEC3"
		},
		{
			"bufferView":26,
			"componentType":5126,
			"count":12,
			"type":"VEC2"
		},
		{
			"bufferView":27,
			"componentType":5123,
			"count":30,
			"type":"SCALAR"
		},
		{
			"bufferView":28,
			"componentType":5126,
			"count":4,
			"max":[
				11.41211223602295,
				-0.009496822953224182,
				8.865819931030273
			],
			"min":[
				-10.167397499084473,
				-0.009496822953224182,
				-8.519575119018555
			],
			"type":"VEC3"
		},
		{
			"bufferView":29,
			"componentType":5126,
			"count":4,
			"type":"VEC3"
		},
		{
			"bufferView":30,
			"componentType":5126,
			"count":4,
			"type":"VEC2"
		},
		{
			"bufferView":31,
			"componentType":5123,
			"count":6,
			"type":"SCALAR"
		},
		{
			"bufferView":32,
			"componentType":5126,
			"count":4,
			"max":[
				-10.167397499084473,
				2.0536303520202637,
				8.865819931030273
			],
			"min":[
				-10.167397499084473,
				-0.009496822953224182,
				-8.519575119018555
			],
			"type":"VEC3"
		},
		{
			"bufferView":33,
			"componentType":5126,
			"count":4,
			"type":"VEC3"
		},
		{
			"bufferView":34,
			"componentType":5126,
			"count":4,
			"type":"VEC2"
		},
		{
			"bufferView":35,
			"componentType":5123,
			"count":6,
			"type":"SCALAR"
		},
		{
			"bufferView":36,
			"componentType":5126,
			"count":1194,
			"max":[
				11.41211223602295,
				2.0536303520202637,
				8.865819931030273
			],
			"min":[
				-10.167397499084473,
				-0.009496822953224182,
				-8.519575119018555
			],
			"type":"VEC3"
		},
		{
			"bufferView":37,
			"componentType":5126,
			"count":1194,
			"type":"VEC3"
		},
		{
			"bufferView":38,
			"componentType":5126,
			"count":1194,
			"type":"VEC2"
		},
		{
			"bufferView":39,
			"componentType":5123,
			"count":1800,
			"type":"SCALAR"
		}
	],
	"bufferViews":[
		{
			"buffer":0,
			"byteLength":7236,
			"byteOffset":0,
			"target":34962
		},
		{
			"buffer":0,
			"byteLength":7236,
			"byteOffset":7236,
			"target":34962
		},
		{
			"buffer":0,
			"byteLength":4824,
			"byteOffset":14472,
			"target":34962
		},
		{
			"buffer":0,
			"byteLength":1920,
			"byteOffset":19296,
			"target":34963
		},
		{
			"buffer":0,
			"byteLength":3864,
			"byteOffset":21216,
			"target":34962
		},
		{
			"buffer":0,
			"byteLength":3864,
			"byteOffset":25080,
			"target":34962
		},
		{
			"buffer":0,
			"byteLength":2576,
			"byteOffset":28944,
			"target":34962
		},
		{
			"buffer":0,
			"byteLength":960,
			"byteOffset":31520,
			"target":34963
		},
		{
			"buffer":0,
			"byteLength":7200,
			"byteOffset":32480,
			"target":34962
		},
		{
			"buffer":0,
			"byteLength":7200,
			"byteOffset":39680,
			"target":34962
		},
		{
			"buffer":0,
			"byteLength":4800,
			"byteOffset":46880,
			"target":34962
		},
		{
			"buffer":0,
			"byteLength":3552,
			"byteOffset":51680,
			"target":34963
		},
		{
			"buffer":0,
			"byteLength":7200,
			"byteOffset":55232,
			"target":34962
		},
		{
			"buffer":0,
			"byteLength":7200,
			"byteOffset":62432,
			"target":34962
		},
		{
			"buffer":0,
			"byteLength":4800,
			"byteOffset":69632,
			"target":34962
		},
		{
			"buffer":0,
			"byteLength":3552,
			"byteOffset":74432,
			"target":34963
		},
		{
			"buffer":0,
			"byteLength":3600,
			"byteOffset":77984,
			"target":34962
		},
		{
			"buffer":0,
			"byteLength":3600,
			"byteOffset":81584,
			"target":34962
		},
		{
			"buffer":0,
			"byteLength":2400,
			"byteOffset":85184,
			"target":34962
		},
		{
			"buffer":0,
			"byteLength":1776,
			"byteOffset":87584,
			"target":34963
		},
		{
			"buffer":0,
			"byteLength":144,
			"byteOffset":89360,
			"target":34962
		},
		{
			"buffer":0,
			"byteLength":144,
			"byteOffset":89504,
			"target":34962
		},
		{
			"buffer":0,
			"byteLength":96,
			"byteOffset":89648,
			"target":34962
		},
		{
			"buffer":0,
			"byteLength":60,
			"byteOffset":89744,
			"target":34963
		},
		{
			"buffer":0,
			"byteLength":144,
			"byteOffset":89804,
			"target":34962
		},
		{
			"buffer":0,
			"byteLength":144,
			"byteOffset":89948,
			"target":34962
		},
		{
			"buffer":0,
			"byteLength":96,
			"byteOffset":90092,
			"target":34962
		},
		{
			"buffer":0,
			"byteLength":60,
			"byteOffset":90188,
			"target":34963
		},
		{
			"buffer":0,
			"byteLength":48,
			"byteOffset":90248,
			"target":34962
		},
		{
			"buffer":0,
			"byteLength":48,
			"byteOffset":90296,
			"target":34962
		},
		{
			"buffer":0,
			"byteLength":32,
			"byteOffset":90344,
			"target":34962
		},
		{
			"buffer":0,
			"byteLength":12,
			"byteOffset":90376,
			"target":34963
		},
		{
			"buffer":0,
			"byteLength":48,
			"byteOffset":90388,
			"target":34962
		},
		{
			"buffer":0,
			"byteLength":48,
			"byteOffset":90436,
			"target":34962
		},
		{
			"buffer":0,
			"byteLength":32,
			"byteOffset":90484,
			"target":34962
		},
		{
			"buffer":0,
			"byteLength":12,
			"byteOffset":90516,
			"target":34963
		},
		{
			"buffer":0,
			"byteLength":14328,
			"byteOffset":90528,
			"target":34962
		},
		{
			"buffer":0,
			"byteLength":14328,
			"byteOffset":104856,
			"target":34962
		},
		{
			"buffer":0,
			"byteLength":9552,
			"byteOffset":119184,
			"target":34962
		},
		{
			"buffer":0,
			"byteLength":3600,
			"byteOffset":128736,
			"target":34963
		}
	],
	"samplers":[
		{
			"magFilter":9729,
			"minFilter":9987
		},
		{
			"magFilter":9729,
			"minFilter":9987,
			"wrapS":33071,
			"wrapT":33071
		}
	],
	"buffers":[
		{
			"byteLength":132336,
			"uri":"piste.bin"
		}
	]
}
