{
	"asset":{
		"generator":"Khronos glTF Blender I/O v5.2.39",
		"version":"2.0"
	},
	"scene":0,
	"scenes":[
		{
			"name":"Scene",
			"nodes":[
				0
			]
		}
	],
	"nodes":[
		{
			"mesh":0,
			"name":"voiture",
			"rotation":[
				0,
				-0.7071068286895752,
				0,
				0.7071068286895752
			]
		}
	],
	"materials":[
		{
			"doubleSided":true,
			"name":"texture",
			"pbrMetallicRoughness":{
				"baseColorTexture":{
					"index":0
				},
				"metallicFactor":0
			}
		},
		{
			"doubleSided":true,
			"name":"vert",
			"pbrMetallicRoughness":{
				"baseColorTexture":{
					"index":1
				},
				"metallicFactor":0,
				"roughnessFactor":0.5
			}
		},
		{
			"doubleSided":true,
			"name":"Bleu",
			"pbrMetallicRoughness":{
				"baseColorTexture":{
					"index":2
				},
				"metallicFactor":0,
				"roughnessFactor":0.5
			}
		}
	],
	"meshes":[
		{
			"name":"Cube",
			"primitives":[
				{
					"attributes":{
						"POSITION":0,
						"NORMAL":1,
						"TEXCOORD_0":2
					},
					"indices":3,
					"material":0
				},
				{
					"attributes":{
						"POSITION":4,
						"NORMAL":5,
						"TEXCOORD_0":6
					},
					"indices":7,
					"material":1
				},
				{
					"attributes":{
						"POSITION":8,
						"NORMAL":9,
						"TEXCOORD_0":10
					},
					"indices":11,
					"material":2
				}
			]
		}
	],
	"textures":[
		{
			"sampler":0,
			"source":0
		},
		{
			"sampler":0,
			"source":1
		},
		{
			"sampler":0,
			"source":2
		}
	],
	"images":[
		{
			"mimeType":"image/jpeg",
			"name":"bruit",
			"uri":"textures/bruit.jpg"
		},
		{
			"mimeType":"image/jpeg",
			"name":"vert",
			"uri":"textures/vert.jpg"
		},
		{
			"mimeType":"image/jpeg",
			"name":"bleu",
			"uri":"textures/bleu.jpg"
		}
	],
	"accessors":[
		{
			"bufferView":0,
			"componentType":5126,
			"count":8,
			"max":[
				0.09853342175483704,
				-0.049751073122024536,
				0.05212695896625519
			],
			"min":[
				-0.12055495381355286,
				-0.049751073122024536,
				-0.05212695896625519
			],
			"type":"VEC3"
		},
		{
			"bufferView":1,
			"componentType":5126,
			"count":8,
			"type":"VEC3"
		},
		{
			"bufferView":2,
			"componentType":5126,
			"count":8,
			"type":"VEC2"
		},
		{
			"bufferView":3,
			"componentType":5123,
			"count":18,
			"type":"SCALAR"
		},
		{
			"bufferView":4,
			"componentType":5126,
			"count":42,
			"max":[
				0.09853342175483704,
				0.04406769573688507,
				0.05212695896625519
			],
			"min":[
				-0.12055495381355286,
				-0.049751073122024536,
				-0.05212695896625519
			],
			"type":"VEC3"
		},
		{
			"bufferView":5,
			"componentType":5126,
			"count":42,
			"type":"VEC3"
		},
		{
			"bufferView":6,
			"componentType":5126,
			"count":42,
			"type":"VEC2"
		},
		{
			"bufferView":7,
			"componentType":5123,
			"count":90,
			"type":"SCALAR"
		},
		{
			"bufferView":8,
			"componentType":5126,
			"count":24,
			"max":[
				0.09853342175483704,
				0.04406769573688507,
				0.05212695896625519
			],
			"min":[
				-0.0922127515077591,
				0.006661504507064819,
				-0.05212695896625519
			],
			"type":"VEC3"
		},
		{
			"bufferView":9,
			"componentType":5126,
			"count":24,
			"type":"VEC3"
		},
		{
			"bufferView":10,
			"componentType":5126,
			"count":24,
			"type":"VEC2"
		},
		{
			"bufferView":11,
			"componentType":5123,
			"count":36,
			"type":"SCALAR"
		}
	],
	"bufferViews":[
		{
			"buffer":0,
			"byteLength":96,
			"byteOffset":0,
			"target":34962
		},
		{
			"buffer":0,
			"byteLength":96,
			"byteOffset":96,
			"target":34962
		},
		{
			"buffer":0,
			"byteLength":64,
			"byteOffset":192,
			"target":34962
		},
		{
			"buffer":0,
			"byteLength":36,
			"byteOffset":256,
			"target":34963
		},
		{
			"buffer":0,
			"byteLength":504,
			"byteOffset":292,
			"target":34962
		},
		{
			"buffer":0,
			"byteLength":504,
			"byteOffset":796,
			"target":34962
		},
		{
			"buffer":0,
			"byteLength":336,
			"byteOffset":1300,
			"target":34962
		},
		{
			"buffer":0,
			"byteLength":180,
			"byteOffset":1636,
			"target":34963
		},
		{
			"buffer":0,
			"byteLength":288,
			"byteOffset":1816,
			"target":34962
		},
		{
			"buffer":0,
			"byteLength":288,
			"byteOffset":2104,
			"target":34962
		},
		{
			"buffer":0,
			"byteLength":192,
			"byteOffset":2392,
			"target":34962
		},
		{
			"buffer":0,
			"byteLength":72,
			"byteOffset":2584,
			"target":34963
		}
	],
	"samplers":[
		{
			"magFilter":9729,
			"minFilter":9987
		}
	],
	"buffers":[
		{
			"byteLength":2656,
			"uri":"voiture.bin"
		}
	]
}
